<?xml version="1.0" encoding="utf-8"?>
<!-- Generator: Adobe Illustrator 25.4.1, SVG Export Plug-In . SVG Version: 6.00 Build 0)  -->
<svg version="1.1" xmlns="http://www.w3.org/2000/svg" xmlns:xlink="http://www.w3.org/1999/xlink" x="0px" y="0px"
	 viewBox="0 0 224.2 204.2" style="enable-background:new 0 0 224.2 204.2;" xml:space="preserve">
<style type="text/css">
	.st0{fill:#B73434;}
	.st1{fill:#FFFFFF;}
</style>
<g id="Layer_2">
	<rect x="9.6" y="12.1" class="st0" width="207" height="182"/>
</g>
<g id="Layer_1">
	<g>
		<path class="st1" d="M57,145.4c6.5-2.8,8.8-8.1,8.8-16.1c0-8.5-3.6-12.8-8.8-18V145.4z"/>
		<path class="st1" d="M39.7,66.9c0,7.6,3,12.4,7.9,17.3V54.1C42.7,55.8,39.7,61,39.7,66.9z"/>
		<path class="st1" d="M164.7,164.6c-5.4,0-8.6,3.4-8.6,7.6c0,5.6,4,8.1,8.6,8.1c4.5,0,8.6-2.4,8.6-8.1
			C173.3,168,170.1,164.6,164.7,164.6z"/>
		<path class="st1" d="M7.1,9.6v185h210V9.6H7.1z M57,162v20h-9.5v-20c-10.9-1.2-19.9-9.9-25.5-19.5l13.1-10.9
			c2,6,6.3,11.9,12.5,13.8v-40.6c-12.1-8.1-24-18.8-24-35.6c0-16.1,8.5-29.7,24-32V22H57v15.2c8.8,1.9,16.7,7.6,21.9,15.7L67,64.1
			c-2.4-4.3-5-8.8-9.9-10v35.8c13.4,9.3,25.5,19.2,25.5,38.5C82.6,145.7,73.6,160.4,57,162z M96.3,181.7h-2.1v-16.6h-0.1l-7.3,16.6
			H85l-7.3-16.6h-0.1v16.6h-2.1v-18.6h3.5l6.9,15.6l6.9-15.6h3.5V181.7z M91.6,121.5v-6.1h15.1v5.2c0,6.6,2.2,9.6,7.4,9.6
			c5.2,0,8.1-3.1,8.1-9.6V96.9c-4.5,4.5-7.3,6.7-14.2,6.7c-10,0-18.4-5.9-18.4-20.6V71c0-21.2,7.3-30.7,24.5-30.7
			s24.5,8.6,24.5,27.6v48.3c0,19-7.3,27.6-24.5,27.6C100.4,144.1,91.6,134.3,91.6,121.5z M103.4,181.7h-2.2v-18.6h2.2V181.7z
			 M125.2,181.7h-16.9v-18.6h2.2v16.6h14.7V181.7z M145,181.7h-16.9v-18.6h2.2v16.6H145V181.7z M150.2,181.7H148v-18.6h2.2V181.7z
			 M164.7,182.2c-5.4,0-10.9-3-10.9-9.6c0-6.2,4.6-9.9,10.9-9.9c6.3,0,10.9,3.7,10.9,9.9C175.6,179.2,170.1,182.2,164.7,182.2z
			 M198.5,181.7h-2.2l-14.9-16.6v16.6h-2.1v-18.6h3.2l13.8,15.3v-15.3h2.2V181.7z M200.5,116.2c0,19-7.3,27.6-24.5,27.6
			s-24.5-8.6-24.5-27.6V67.9c0-19,7.3-27.6,24.5-27.6s24.5,8.6,24.5,27.6V116.2z"/>
		<path class="st1" d="M176,54c-5.2,0-8.1,3.1-8.1,9.6v56.9c0,6.6,2.9,9.6,8.1,9.6c5.2,0,8.1-3.1,8.1-9.6V63.6
			C184,57,181.1,54,176,54z"/>
		<path class="st1" d="M122.1,63.6c0-6.6-2.9-9.6-8.1-9.6c-5.2,0-8.1,3.1-8.1,9.6v16.7c0,6.6,2.9,9.6,7.3,9.6c3.1,0,6.8-2.9,8.9-4.6
			V63.6z"/>
	</g>
</g>
</svg>
